<?xml version="1.0" encoding="UTF-8" standalone="no"?>
<!DOCTYPE svg PUBLIC "-//W3C//DTD SVG 1.1//EN"
 "http://www.w3.org/Graphics/SVG/1.1/DTD/svg11.dtd">
<!-- Generated by graphviz version 2.43.0 (0)
 -->
<!-- Title: S2Tree Pages: 1 -->
<svg width="1124pt" height="146pt"
 viewBox="0.00 0.00 1124.47 146.00" xmlns="http://www.w3.org/2000/svg" xmlns:xlink="http://www.w3.org/1999/xlink">
<g id="graph0" class="graph" transform="scale(1 1) rotate(0) translate(4 142)">
<title>S2Tree</title>
<polygon fill="white" stroke="transparent" points="-4,4 -4,-142 1120.47,-142 1120.47,4 -4,4"/>
<text text-anchor="middle" x="558.24" y="-121.2" font-family="Times,serif" font-size="16.00">S2 multicast tree (baseline)</text>
<text text-anchor="middle" x="558.24" y="-103.2" font-family="Times,serif" font-size="16.00">20251008T182211Z</text>
<!-- A -->
<g id="node1" class="node">
<title>A</title>
<path fill="#eef5ff" stroke="black" d="M451.99,-66C451.99,-66 275.99,-66 275.99,-66 269.99,-66 263.99,-60 263.99,-54 263.99,-54 263.99,-40 263.99,-40 263.99,-34 269.99,-28 275.99,-28 275.99,-28 451.99,-28 451.99,-28 457.99,-28 463.99,-34 463.99,-40 463.99,-40 463.99,-54 463.99,-54 463.99,-60 457.99,-66 451.99,-66"/>
<text text-anchor="middle" x="363.99" y="-50.8" font-family="Times,serif" font-size="14.00">Domínio A</text>
<text text-anchor="middle" x="363.99" y="-35.8" font-family="Times,serif" font-size="14.00">QoS/replicação na origem</text>
</g>
<!-- B -->
<g id="node2" class="node">
<title>B</title>
<path fill="#eef5ff" stroke="black" d="M842.99,-94C842.99,-94 666.99,-94 666.99,-94 660.99,-94 654.99,-88 654.99,-82 654.99,-82 654.99,-68 654.99,-68 654.99,-62 660.99,-56 666.99,-56 666.99,-56 842.99,-56 842.99,-56 848.99,-56 854.99,-62 854.99,-68 854.99,-68 854.99,-82 854.99,-82 854.99,-88 848.99,-94 842.99,-94"/>
<text text-anchor="middle" x="754.99" y="-78.8" font-family="Times,serif" font-size="14.00">Domínio B</text>
<text text-anchor="middle" x="754.99" y="-63.8" font-family="Times,serif" font-size="14.00">QoS/replicação na origem</text>
</g>
<!-- A&#45;&gt;B -->
<g id="edge2" class="edge">
<title>A&#45;&gt;B</title>
<path fill="none" stroke="black" d="M464.15,-54.14C519.26,-58.1 587.93,-63.05 644.59,-67.13"/>
<polygon fill="black" stroke="black" points="644.44,-70.62 654.66,-67.85 644.94,-63.64 644.44,-70.62"/>
<text text-anchor="middle" x="559.49" y="-68.8" font-family="Times,serif" font-size="14.00">overlay (VXLAN/GRE)</text>
</g>
<!-- C -->
<g id="node3" class="node">
<title>C</title>
<path fill="#eef5ff" stroke="black" d="M842.99,-38C842.99,-38 666.99,-38 666.99,-38 660.99,-38 654.99,-32 654.99,-26 654.99,-26 654.99,-12 654.99,-12 654.99,-6 660.99,0 666.99,0 666.99,0 842.99,0 842.99,0 848.99,0 854.99,-6 854.99,-12 854.99,-12 854.99,-26 854.99,-26 854.99,-32 848.99,-38 842.99,-38"/>
<text text-anchor="middle" x="754.99" y="-22.8" font-family="Times,serif" font-size="14.00">Domínio C</text>
<text text-anchor="middle" x="754.99" y="-7.8" font-family="Times,serif" font-size="14.00">QoS/replicação na origem</text>
</g>
<!-- A&#45;&gt;C -->
<g id="edge3" class="edge">
<title>A&#45;&gt;C</title>
<path fill="none" stroke="black" d="M464.23,-38.38C470.24,-37.9 476.19,-37.44 481.99,-37 535.52,-32.94 595.01,-28.95 644.68,-25.75"/>
<polygon fill="black" stroke="black" points="645.04,-29.24 654.8,-25.11 644.6,-22.25 645.04,-29.24"/>
<text text-anchor="middle" x="559.49" y="-40.8" font-family="Times,serif" font-size="14.00">overlay (VXLAN/GRE)</text>
</g>
<!-- h3 -->
<g id="node5" class="node">
<title>h3</title>
<ellipse fill="#fff7e6" stroke="black" cx="1028.73" cy="-75" rx="87.99" ry="18"/>
<text text-anchor="middle" x="1028.73" y="-71.3" font-family="Times,serif" font-size="14.00">h3@B (receptor)</text>
</g>
<!-- B&#45;&gt;h3 -->
<g id="edge4" class="edge">
<title>B&#45;&gt;h3</title>
<path fill="none" stroke="black" d="M855.25,-75C879.9,-75 906.29,-75 930.83,-75"/>
<polygon fill="black" stroke="black" points="930.85,-78.5 940.85,-75 930.85,-71.5 930.85,-78.5"/>
<text text-anchor="middle" x="897.99" y="-78.8" font-family="Times,serif" font-size="14.00">deliver</text>
</g>
<!-- h5 -->
<g id="node6" class="node">
<title>h5</title>
<ellipse fill="#fff7e6" stroke="black" cx="1028.73" cy="-19" rx="87.99" ry="18"/>
<text text-anchor="middle" x="1028.73" y="-15.3" font-family="Times,serif" font-size="14.00">h5@C (receptor)</text>
</g>
<!-- C&#45;&gt;h5 -->
<g id="edge5" class="edge">
<title>C&#45;&gt;h5</title>
<path fill="none" stroke="black" d="M855.25,-19C879.9,-19 906.29,-19 930.83,-19"/>
<polygon fill="black" stroke="black" points="930.85,-22.5 940.85,-19 930.85,-15.5 930.85,-22.5"/>
<text text-anchor="middle" x="897.99" y="-22.8" font-family="Times,serif" font-size="14.00">deliver</text>
</g>
<!-- h1 -->
<g id="node4" class="node">
<title>h1</title>
<ellipse fill="#eaffea" stroke="black" cx="71.49" cy="-47" rx="71.49" ry="18"/>
<text text-anchor="middle" x="71.49" y="-43.3" font-family="Times,serif" font-size="14.00">h1@A (fonte)</text>
</g>
<!-- h1&#45;&gt;A -->
<g id="edge1" class="edge">
<title>h1&#45;&gt;A</title>
<path fill="none" stroke="black" d="M143.18,-47C176.34,-47 216.61,-47 253.58,-47"/>
<polygon fill="black" stroke="black" points="253.91,-50.5 263.91,-47 253.91,-43.5 253.91,-50.5"/>
<text text-anchor="middle" x="203.49" y="-50.8" font-family="Times,serif" font-size="14.00">QoS origem</text>
</g>
</g>
</svg>
