<?xml version="1.0" encoding="UTF-8" standalone="no"?>
<!DOCTYPE svg PUBLIC "-//W3C//DTD SVG 1.1//EN"
 "http://www.w3.org/Graphics/SVG/1.1/DTD/svg11.dtd">
<!-- Generated by graphviz version 2.43.0 (0)
 -->
<!-- Title: S2Tree Pages: 1 -->
<svg width="1256pt" height="176pt"
 viewBox="0.00 0.00 1256.47 176.00" xmlns="http://www.w3.org/2000/svg" xmlns:xlink="http://www.w3.org/1999/xlink">
<g id="graph0" class="graph" transform="scale(1 1) rotate(0) translate(4 172)">
<title>S2Tree</title>
<polygon fill="white" stroke="transparent" points="-4,4 -4,-172 1252.47,-172 1252.47,4 -4,4"/>
<text text-anchor="middle" x="624.24" y="-151.2" font-family="Times,serif" font-size="16.00">S2 multicast tree (adapt)</text>
<text text-anchor="middle" x="624.24" y="-133.2" font-family="Times,serif" font-size="16.00">20251013T034614Z</text>
<!-- A -->
<g id="node1" class="node">
<title>A</title>
<path fill="#eef5ff" stroke="black" d="M451.99,-88C451.99,-88 275.99,-88 275.99,-88 269.99,-88 263.99,-82 263.99,-76 263.99,-76 263.99,-47 263.99,-47 263.99,-41 269.99,-35 275.99,-35 275.99,-35 451.99,-35 451.99,-35 457.99,-35 463.99,-41 463.99,-47 463.99,-47 463.99,-76 463.99,-76 463.99,-82 457.99,-88 451.99,-88"/>
<text text-anchor="middle" x="363.99" y="-72.8" font-family="Times,serif" font-size="14.00">Domínio A</text>
<text text-anchor="middle" x="363.99" y="-57.8" font-family="Times,serif" font-size="14.00">backends=legacy_exec</text>
<text text-anchor="middle" x="363.99" y="-42.8" font-family="Times,serif" font-size="14.00">QoS/replicação na origem</text>
</g>
<!-- B -->
<g id="node2" class="node">
<title>B</title>
<path fill="#eef5ff" stroke="black" d="M974.99,-124C974.99,-124 666.99,-124 666.99,-124 660.99,-124 654.99,-118 654.99,-112 654.99,-112 654.99,-83 654.99,-83 654.99,-77 660.99,-71 666.99,-71 666.99,-71 974.99,-71 974.99,-71 980.99,-71 986.99,-77 986.99,-83 986.99,-83 986.99,-112 986.99,-112 986.99,-118 980.99,-124 974.99,-124"/>
<text text-anchor="middle" x="820.99" y="-108.8" font-family="Times,serif" font-size="14.00">Domínio B</text>
<text text-anchor="middle" x="820.99" y="-93.8" font-family="Times,serif" font-size="14.00">backends=netconf_like</text>
<text text-anchor="middle" x="820.99" y="-78.8" font-family="Times,serif" font-size="14.00">VLAN flood / L2MC estático (NETCONF&#45;like)</text>
</g>
<!-- A&#45;&gt;B -->
<g id="edge2" class="edge">
<title>A&#45;&gt;B</title>
<path fill="none" stroke="black" d="M464,-69.33C516.87,-73.52 583.51,-78.79 644.8,-83.64"/>
<polygon fill="black" stroke="black" points="644.74,-87.15 654.99,-84.45 645.29,-80.17 644.74,-87.15"/>
<text text-anchor="middle" x="559.49" y="-86.3" font-family="Times,serif" font-size="14.00">overlay (VXLAN/GRE)</text>
</g>
<!-- C -->
<g id="node3" class="node">
<title>C</title>
<path fill="#eef5ff" stroke="black" d="M910.49,-53C910.49,-53 731.49,-53 731.49,-53 725.49,-53 719.49,-47 719.49,-41 719.49,-41 719.49,-12 719.49,-12 719.49,-6 725.49,0 731.49,0 731.49,0 910.49,0 910.49,0 916.49,0 922.49,-6 922.49,-12 922.49,-12 922.49,-41 922.49,-41 922.49,-47 916.49,-53 910.49,-53"/>
<text text-anchor="middle" x="820.99" y="-37.8" font-family="Times,serif" font-size="14.00">Domínio C</text>
<text text-anchor="middle" x="820.99" y="-22.8" font-family="Times,serif" font-size="14.00">backends=p4runtime_like</text>
<text text-anchor="middle" x="820.99" y="-7.8" font-family="Times,serif" font-size="14.00">L2MC estático (P4)</text>
</g>
<!-- A&#45;&gt;C -->
<g id="edge3" class="edge">
<title>A&#45;&gt;C</title>
<path fill="none" stroke="black" d="M464.24,-52.94C470.24,-52.44 476.2,-51.96 481.99,-51.5 557.86,-45.45 643.36,-39.13 709.38,-34.36"/>
<polygon fill="black" stroke="black" points="709.67,-37.85 719.39,-33.64 709.17,-30.87 709.67,-37.85"/>
<text text-anchor="middle" x="559.49" y="-55.3" font-family="Times,serif" font-size="14.00">overlay (VXLAN/GRE)</text>
</g>
<!-- h3 -->
<g id="node5" class="node">
<title>h3</title>
<ellipse fill="#fff7e6" stroke="black" cx="1160.73" cy="-97.5" rx="87.99" ry="18"/>
<text text-anchor="middle" x="1160.73" y="-93.8" font-family="Times,serif" font-size="14.00">h3@B (receptor)</text>
</g>
<!-- B&#45;&gt;h3 -->
<g id="edge4" class="edge">
<title>B&#45;&gt;h3</title>
<path fill="none" stroke="black" d="M987.4,-97.5C1013.17,-97.5 1039.04,-97.5 1062.63,-97.5"/>
<polygon fill="black" stroke="black" points="1062.94,-101 1072.94,-97.5 1062.94,-94 1062.94,-101"/>
<text text-anchor="middle" x="1029.99" y="-101.3" font-family="Times,serif" font-size="14.00">deliver</text>
</g>
<!-- h5 -->
<g id="node6" class="node">
<title>h5</title>
<ellipse fill="#fff7e6" stroke="black" cx="1160.73" cy="-26.5" rx="87.99" ry="18"/>
<text text-anchor="middle" x="1160.73" y="-22.8" font-family="Times,serif" font-size="14.00">h5@C (receptor)</text>
</g>
<!-- C&#45;&gt;h5 -->
<g id="edge5" class="edge">
<title>C&#45;&gt;h5</title>
<path fill="none" stroke="black" d="M922.86,-26.5C967.13,-26.5 1018.89,-26.5 1062.71,-26.5"/>
<polygon fill="black" stroke="black" points="1062.8,-30 1072.8,-26.5 1062.8,-23 1062.8,-30"/>
<text text-anchor="middle" x="1029.99" y="-30.3" font-family="Times,serif" font-size="14.00">deliver</text>
</g>
<!-- h1 -->
<g id="node4" class="node">
<title>h1</title>
<ellipse fill="#eaffea" stroke="black" cx="71.49" cy="-61.5" rx="71.49" ry="18"/>
<text text-anchor="middle" x="71.49" y="-57.8" font-family="Times,serif" font-size="14.00">h1@A (fonte)</text>
</g>
<!-- h1&#45;&gt;A -->
<g id="edge1" class="edge">
<title>h1&#45;&gt;A</title>
<path fill="none" stroke="black" d="M143.18,-61.5C176.34,-61.5 216.61,-61.5 253.58,-61.5"/>
<polygon fill="black" stroke="black" points="253.91,-65 263.91,-61.5 253.91,-58 253.91,-65"/>
<text text-anchor="middle" x="203.49" y="-65.3" font-family="Times,serif" font-size="14.00">QoS origem</text>
</g>
</g>
</svg>
